<svg id="레이어_2" data-name="레이어 2" xmlns="http://www.w3.org/2000/svg" viewBox="0 0 1317.49 1138"><defs><style>.cls-1{fill:#fff;}</style></defs><path class="cls-1" d="M385-21a285.67,285.67,0,0,1,6,91c-10.25,105.47-81.07,203-107,195-12.62-3.87-19.41-34.18-9-52,7.25-12.4,25.14-22.72,38-18,32.78,12,2.81,110.63,38,128,27,13.32,83.69-25.41,80-49-2.81-17.95-41.74-34.61-63-23-36.74,20.06-39.5,134.89,8,166,61.15,40.06,184.43-72.51,240-24,15.26,13.32,14.11,28.92,36,40,36.58,18.52,92.07,1.41,96-19,2.1-10.91-9.93-25.9-19-25s-17.57,17.93-13,26c6.74,11.9,44,8,49-5,2.56-6.62-4.74-11.87-6.21-31.82C758,368,759.55,364.1,760,363c3.36-8.18,12.78-17.23,24-16,13.4,1.47,23.73,17,20,26s-21.58,12.32-29,6c-10-8.47-4.13-37,12-49,5.71-4.26,12.55-5.23,26-7,54.42-7.15,61.29-7.42,71-13,3.85-2.21,22.26-12.79,27-33,5.36-22.87-8.73-49.81-28-58-19.61-8.33-34.58,7-50-4-11.57-8.25-6.17-19-18-28-8.73-6.61-23.94-5.17-54-2-30.78,3.24-36.9,6.88-40,9-13.6,9.32-8.36,19.68-21,31-17.29,15.48-34.64,4.92-45,18-10.5,13.26-5.5,40.32,9,54,3.42,3.23,10.09,8.28,44,13,19.75,2.75,29.63,4.13,48,4,26.08-.18,120.81-.84,155,45,24.8,33.25-3.46,62.53,28,112,3.5,5.51.86.44,46,46,28.6,28.87,63.91,50.63,92,80,2.59,2.71,9.8,10.43,19,10,.68,0,7.58-.46,12-6,5.73-7.19,5-19.23,0-22-4.36-2.42-12,2.22-16,6-25.21,23.79,5.12,96.71,20,114h0s3.27,3.72,13,15h0s.25,1.3.41,2.54c.09.72.8,9.61-1.41,12.45-3.44,4.41-18.74.44-28-6-23.76-16.53-20.7-56.42-20-64l100,3h9l6,9c0,8.36-1.11,34.73-20,50-4.45,3.6-14.63,11.83-24,8-8.62-3.52-13.54-16-10-22,3.22-5.45,11.4-2.14,18-8,7.21-6.4,6.21-18.11,6-24-1.08-30.2,13.18-58.51,23-78,1.67-3.31-.12.55,32-46,13.71-19.87,21.24-31,24-48,1.37-8.41,1.21-16.06,1-26-.37-17.54-.55-26.35-4-36-1-2.86-9.82-26.36-33-36-20.06-8.35-41.68-2.49-53,4-55.9,32-38.13,180.8-11,186,20.61,4,51.53-74,63-118,5-19.06,6.11-31.08,4-44-4.72-28.95-26.18-65.15-60-72-42-8.52-79.67,33.06-94,65-25.33,56.46-.19,132.56,28,137,24.11,3.8,63.53-42.78,58-88-6.32-51.69-69.19-83.76-108-72-52.5,15.9-70.61,114.91-38,166,16.19,25.36,33.12,20.51,52,45,49.94,64.78,10.17,200.88-25,204-20.72,1.84-48.87-41.69-39-60,13.8-25.59,112.89-22.38,156,27,61.62,70.57-26.94,194.45,19,233,63.82,53.55,274.37-152.25,368-85,27.32,19.62,48.22,65,57,100a215,215,0,0,1,4,84" transform="translate(-269.9 21)"/></svg>