<svg id="레이어_3" data-name="레이어 3" xmlns="http://www.w3.org/2000/svg" viewBox="0 0 1538.78 1107"><defs><style>.cls-1{fill:#fff;}</style></defs><path class="cls-1" d="M1587-27c-3.87,10.51-20,57.73,4,102,23.65,43.69,78.56,70.18,93,58,12.26-10.34,1.56-53.76-16-58-28-6.74-81.63,83.8-65,103,14.69,17,77.1-30.06,101-8,13.27,12.25,8.68,40.25-1,69l-18,164h-29V335h-89V318h-42v60h-12V367.33l-7.17-7.16v-8.84H1491v-28h-75V334h-17v16h-52V328.67c-13.23,3.89-18.14,2.42-20,0-2.8-3.64,2-8.47,1-17.67-1-8.88-6.55-15-12-21a62.51,62.51,0,0,0-21-15V239.33L1285,230V208.67L1279,233l-8,8v29s-8.77,5.22-14,9c-4.44,3.21-11.54,8.34-16,16-6,10.25-5.16,21.5-4,28h-24v27h-34V331.33L1164,321V299.33L1155,322l-11,5v59h-29l-7-11h-47v87h-27v34.67H884V395l117,54,9.67-13.5L884,374V324.67L876,301l-7,18H857l-10-30-10,32H824V296.67L815,319v37.67H693V343.33L683,363l-10-20v16.33l-14.85-18.66V358H580v22.67H813V479H568V326l-12-13v17H541l-14-44-14,41H503V311.33L491,333V477l-104,4,87.08-72.33v-12l-87.08,52-9.42-9.42-6-6V411.33H361v-136c-.87-5.52-4.15-21.35-18-33.33-4.11-3.55-19.85-17.17-38-12-1.62.46-18,5.41-22,21-.19.74-3.6,14.74,5,24,10.35,11.15,29.21,5.89,36,4,4.89-1.36,12.3-3.43,19-10a39.86,39.86,0,0,0,10-39c-4.1-14-15-21.16-18-23V174l-16-20-4-63-8,66-17,19.67V213l-20.1,31.67V482c-71.68,64.34-79.83,93.93-72.9,109,10.82,23.51,58.15,11.16,74,39,21.9,38.46-46.86,99.92-29,123,16.15,20.88,95.6.6,98-24,2.64-27.11-86.51-77.29-131-51-48.77,28.82-49.76,153,12,183,36.9,17.91,100.19-38.14,111-24,5.11,6.68-9.08,18.51-3,33,6.81,16.23,34.23,24.36,55,23,11.52-.75,13.55-3.94,21-2,15.46,4,26.54,22.92,28,40,1.57,18.37-7.2,43.65-30,51-23.29,7.51-47.41-8.15-56-28-6.7-15.47-4.94-35.78,6-48,13.6-15.18,33.32-8.85,70-21a218.43,218.43,0,0,1,26-7c7.5-1.54,12.91-2.24,14.45-2.44,14.94-1.88,33.16-4.18,37.55,3.44,1.11,1.93,1.15,4.17.63,6.88C497.3,908.25,457,948.87,448,942c-6.84-5.21,6-36.46,12-51,8-19.46,15.78-30.5,11-37-3.06-4.15-8.57-2.82-20-4-5.18-.53-40.95-4.22-47-20-3.86-10.06,3.66-26.84,16-33,26.76-13.36,75.79,23.43,77,24a25.7,25.7,0,0,0,15,2c16-3,27.73-23.72,23-37-5.51-15.46-33.1-20.27-51-11-19.3,10-25.39,35.37-20,54,9.51,32.89,52.17,35.74,56,36,4.53.3,16.78,1.12,19-4,2.59-6-8.72-19.53-16-18-9.58,2-16.55,31.07-6,42,5.67,5.88,12.22,2.19,23,6,17.06,6,36.07,27.81,32,52-3.73,22.19-26.24,42.47-51,38-21.31-3.85-37.68-24.61-36-44,1.27-14.57,12.87-30.1,24-30,9.36.09,16.1,11.21,18,14,32.51,47.8,246,9.14,345,90,14.74,12,34.25,32.68,49,69" transform="translate(-173.45 27)"/></svg>